<svg width="92" height="40" viewBox="0 0 92 40" fill="none" xmlns="http://www.w3.org/2000/svg">
<path d="M88.7076 9.42305C90.3928 9.42305 91.759 8.0569 91.759 6.37168C91.759 4.68646 90.3928 3.32031 88.7076 3.32031C87.0224 3.32031 85.6562 4.68646 85.6562 6.37168C85.6562 8.0569 87.0224 9.42305 88.7076 9.42305Z" fill="#25CBDB"/>
<path d="M0.0687417 23.5781C0.0981601 24.5485 0.252181 25.5112 0.52702 26.4423C1.47031 29.5243 4.81956 31.9417 7.93585 32.2014H8.01986C6.64239 31.3016 5.58706 29.9868 5.00669 28.4473C3.63567 24.6971 6.15238 19.8431 10.2196 18.1361C11.8348 17.4981 13.5996 17.3389 15.3029 17.6775C17.0062 18.0162 18.576 18.8383 19.8243 20.0455C22.6389 22.7761 22.5396 26.4003 22.4976 26.9541C22.3787 29.1374 21.5038 31.2113 20.0229 32.82C16.5056 36.5245 10.9949 35.7034 9.28013 35.4475C7.51201 35.1635 5.80097 34.5975 4.21234 33.771C2.69204 32.9843 1.29587 31.978 0.0687417 30.7845C0.255872 31.2123 3.78843 38.9113 11.7854 39.9043C12.7363 40.0226 18.018 40.5688 22.4403 36.788C24.5816 34.9517 26.0935 32.4905 26.7634 29.7504C27.4334 27.0103 27.2277 24.1292 26.1753 21.512C25.5008 19.8194 24.4901 18.2812 23.2041 16.9904C20.7332 14.6008 17.4727 13.1988 14.0386 13.0492C10.5845 12.9269 7.21959 14.1605 4.66298 16.4863C4.66298 12.0308 4.65279 7.57529 4.63243 3.11981C4.25053 1.03083 1.57724 -0.317273 0 0.0646255C0.0114569 19.7553 0.0649227 12.4305 0.0305519 20.584L0.0687417 23.5781Z" fill="#222343"/>
<path d="M44.5264 39.9509C40.2848 39.9509 36.9445 38.7581 34.5054 36.3725C32.0664 33.9869 30.8481 30.7268 30.8506 26.5921C30.8015 24.1527 31.3592 21.7394 32.4737 19.569C33.4906 17.5992 35.04 15.9544 36.9457 14.822C38.9412 13.6685 41.2138 13.0822 43.5182 13.1263C47.0826 13.1263 49.8921 14.272 51.9467 16.5634C54.0013 18.8548 55.0274 21.9915 55.0248 25.9734C55.0248 27.1764 54.3145 27.776 52.9015 27.776H36.0445C36.434 33.148 39.2791 35.834 44.5799 35.834C45.7033 35.8327 46.823 35.7046 47.9177 35.4521C49.1294 35.1572 50.279 34.649 51.3128 33.9513C51.8767 33.5619 52.5672 33.4009 53.2452 33.5006C53.5002 33.5491 53.7407 33.6556 53.9479 33.8119C54.1552 33.9681 54.3238 34.17 54.4405 34.4019C54.6874 34.8947 54.7352 35.4635 54.5742 35.9906C54.3679 36.6404 53.9212 37.1869 53.3254 37.5182C52.0419 38.3673 50.6204 38.9863 49.1245 39.3475C47.6225 39.7375 46.0781 39.9402 44.5264 39.9509V39.9509ZM43.7321 16.8919C41.5069 16.8919 39.74 17.5806 38.4313 18.9579C37.1227 20.3353 36.3271 22.1735 36.0445 24.4725H50.5184C50.4115 22.0666 49.775 20.2016 48.6089 18.8777C47.4429 17.5538 45.8172 16.8919 43.7321 16.8919V16.8919Z" fill="#222343"/>
<path d="M69.4412 39.8419C67.9595 39.8419 66.8647 39.0476 66.1569 37.4589L57.2969 16.8898C57.0889 16.4991 56.976 16.0647 56.9673 15.6221C56.9587 15.1795 57.0546 14.7411 57.2472 14.3426C57.6317 13.6017 58.426 13.2312 59.6303 13.2312C60.1915 13.2063 60.7442 13.3748 61.1961 13.7086C61.69 14.156 62.063 14.7209 62.2806 15.3508L69.5367 33.2695L76.9723 15.3508C77.1899 14.7209 77.5629 14.156 78.0569 13.7086C78.5608 13.36 79.1677 13.1917 79.7792 13.2312C80.734 13.2312 81.3883 13.6017 81.7422 14.3426C81.9163 14.7368 82.0018 15.1645 81.9926 15.5954C81.9833 16.0263 81.8796 16.4499 81.6887 16.8364L72.7294 37.4589C72.0572 39.0476 70.9612 39.8419 69.4412 39.8419Z" fill="#222343"/>
<path d="M88.5762 39.793C86.8118 39.793 85.9283 38.8204 85.9258 36.8753V16.1993C85.9258 14.2898 86.8092 13.3363 88.5762 13.3389C90.3431 13.3414 91.2456 14.2949 91.2838 16.1993V36.8753C91.2838 38.8204 90.3813 39.793 88.5762 39.793Z" fill="#222343"/>
</svg>
